<svg t="1697705253008" class="icon" viewBox="0 0 1024 1024" version="1.1"
  xmlns="http://www.w3.org/2000/svg" p-id="36767" width="200" height="200">
  <path
    d="M789.308 234.658H234.672c-11.766 0-21.344-9.562-21.344-21.312 0-11.782 9.578-21.344 21.344-21.344h234.656c35.36 0 64-28.656 64-64V85.346c0-11.782-9.546-21.344-21.328-21.344s-21.328 9.562-21.328 21.344v42.656c0 11.75-9.578 21.344-21.344 21.344H234.672c-35.36 0-64 28.656-64 64s28.64 64 64 64h554.636c11.782 0 21.376 9.562 21.376 21.312 0 11.782-9.594 21.342-21.376 21.342h-234.62c-35.376 0-64.016 28.656-64.016 64v94.656h42.656V384c0-11.75 9.578-21.344 21.36-21.344h234.622c35.376 0 64-28.656 64-64-0.002-35.342-28.626-63.998-64.002-63.998z"
    fill="#434A54" p-id="36768"></path>
  <path
    d="M1023.996 938.654c0 11.782-9.562 21.344-21.312 21.344H21.33c-11.782 0-21.328-9.562-21.328-21.344V469.344C0.002 457.562 9.548 448 21.33 448h981.354c11.75 0 21.312 9.562 21.312 21.344v469.31z"
    fill="#CCD1D9" p-id="36769"></path>
  <path
    d="M1002.684 448H21.33C9.548 448 0.002 457.562 0.002 469.344v469.31c0 11.782 9.546 21.344 21.328 21.344h981.354c11.75 0 21.312-9.562 21.312-21.344V469.344c0-11.782-9.562-21.344-21.312-21.344z m0 490.654H21.33V469.344h981.354v469.31z"
    fill="#AAB2BC" p-id="36770"></path>
  <path
    d="M128.002 597.344c11.782 0 21.328-9.562 21.328-21.344s-9.546-21.344-21.328-21.344S106.674 564.218 106.674 576s9.546 21.344 21.328 21.344zM213.33 597.344c11.782 0 21.344-9.562 21.344-21.344s-9.562-21.344-21.344-21.344S192 564.218 192 576s9.548 21.344 21.33 21.344zM298.672 597.344c11.782 0 21.328-9.562 21.328-21.344s-9.546-21.344-21.328-21.344-21.344 9.562-21.344 21.344 9.564 21.344 21.344 21.344zM384 597.344c11.782 0 21.328-9.562 21.328-21.344s-9.546-21.344-21.328-21.344-21.328 9.562-21.328 21.344 9.546 21.344 21.328 21.344zM469.328 597.344c11.782 0 21.344-9.562 21.344-21.344s-9.562-21.344-21.344-21.344S448 564.218 448 576s9.546 21.344 21.328 21.344zM554.688 597.344c11.75 0 21.312-9.562 21.312-21.344s-9.562-21.344-21.312-21.344c-11.796 0-21.36 9.562-21.36 21.344s9.562 21.344 21.36 21.344zM640 597.344c11.782 0 21.312-9.562 21.312-21.344S651.78 554.656 640 554.656s-21.312 9.562-21.312 21.344 9.53 21.344 21.312 21.344zM725.308 597.344c11.812 0 21.376-9.562 21.376-21.344s-9.562-21.344-21.376-21.344c-11.75 0-21.312 9.562-21.312 21.344s9.562 21.344 21.312 21.344zM810.684 597.344c11.75 0 21.312-9.562 21.312-21.344s-9.562-21.344-21.312-21.344c-11.812 0-21.376 9.562-21.376 21.344s9.564 21.344 21.376 21.344zM895.996 597.344c11.782 0 21.312-9.562 21.312-21.344s-9.532-21.344-21.312-21.344-21.312 9.562-21.312 21.344 9.53 21.344 21.312 21.344zM170.674 682.656c11.78 0 21.328-9.532 21.328-21.312S182.454 640 170.674 640c-11.782 0-21.344 9.562-21.344 21.344s9.562 21.312 21.344 21.312zM256 682.656c11.782 0 21.328-9.532 21.328-21.312S267.782 640 256 640s-21.328 9.562-21.328 21.344 9.548 21.312 21.328 21.312zM341.33 682.656c11.78 0 21.342-9.532 21.342-21.312S353.11 640 341.33 640c-11.782 0-21.328 9.562-21.328 21.344s9.546 21.312 21.328 21.312zM426.672 682.656c11.782 0 21.328-9.532 21.328-21.312S438.454 640 426.672 640s-21.344 9.562-21.344 21.344 9.562 21.312 21.344 21.312zM512 682.656c11.782 0 21.328-9.532 21.328-21.312S523.782 640 512 640s-21.328 9.562-21.328 21.344 9.546 21.312 21.328 21.312zM597.312 682.656c11.812 0 21.376-9.532 21.376-21.312S609.124 640 597.312 640c-11.75 0-21.312 9.562-21.312 21.344s9.562 21.312 21.312 21.312zM682.688 682.656c11.75 0 21.308-9.532 21.308-21.312S694.438 640 682.688 640c-11.812 0-21.376 9.562-21.376 21.344s9.564 21.312 21.376 21.312zM767.996 682.656c11.782 0 21.312-9.532 21.312-21.312S779.778 640 767.996 640s-21.312 9.562-21.312 21.344 9.53 21.312 21.312 21.312zM895.996 640h-42.688c-11.75 0-21.312 9.562-21.312 21.344s9.562 21.312 21.312 21.312h21.376v64c0 11.782 9.532 21.344 21.312 21.344s21.312-9.562 21.312-21.344v-85.312c0-11.782-9.53-21.344-21.312-21.344zM213.33 725.344H128.002c-11.782 0-21.328 9.532-21.328 21.312S116.22 768 128.002 768h85.328c11.782 0 21.344-9.562 21.344-21.344s-9.564-21.312-21.344-21.312zM298.672 725.344c-11.782 0-21.344 9.532-21.344 21.312S286.892 768 298.672 768 320 758.438 320 746.656s-9.546-21.312-21.328-21.312zM384 725.344c-11.782 0-21.328 9.532-21.328 21.312S372.218 768 384 768s21.328-9.562 21.328-21.344-9.546-21.312-21.328-21.312zM469.328 725.344c-11.782 0-21.328 9.532-21.328 21.312S457.546 768 469.328 768s21.344-9.562 21.344-21.344-9.562-21.312-21.344-21.312zM554.688 725.344c-11.796 0-21.36 9.532-21.36 21.312S542.89 768 554.688 768c11.75 0 21.312-9.562 21.312-21.344s-9.562-21.312-21.312-21.312zM640 725.344c-11.782 0-21.312 9.532-21.312 21.312S628.218 768 640 768s21.312-9.562 21.312-21.344-9.53-21.312-21.312-21.312zM725.308 725.344c-11.75 0-21.312 9.532-21.312 21.312S713.558 768 725.308 768c11.812 0 21.376-9.562 21.376-21.344s-9.562-21.312-21.376-21.312zM810.684 725.344c-11.812 0-21.376 9.532-21.376 21.312S798.872 768 810.684 768c11.75 0 21.312-9.562 21.312-21.344s-9.562-21.312-21.312-21.312zM170.674 810.654c-11.782 0-21.344 9.562-21.344 21.344s9.562 21.344 21.344 21.344c11.78 0 21.328-9.562 21.328-21.344s-9.548-21.344-21.328-21.344zM256 810.654c-11.782 0-21.328 9.562-21.328 21.344s9.546 21.344 21.328 21.344 21.328-9.562 21.328-21.344-9.546-21.344-21.328-21.344zM682.688 810.654H341.33c-11.782 0-21.328 9.562-21.328 21.344s9.546 21.344 21.328 21.344h341.358c11.75 0 21.308-9.562 21.308-21.344s-9.558-21.344-21.308-21.344zM767.996 810.654c-11.782 0-21.312 9.562-21.312 21.344s9.532 21.344 21.312 21.344 21.312-9.562 21.312-21.344-9.53-21.344-21.312-21.344zM853.308 810.654c-11.75 0-21.312 9.562-21.312 21.344s9.562 21.344 21.312 21.344c11.812 0 21.376-9.562 21.376-21.344s-9.562-21.344-21.376-21.344z"
    fill="#F5F7FA" p-id="36771"></path>
</svg>