<svg t="1697705139593" class="icon" viewBox="0 0 1024 1024" version="1.1"
  xmlns="http://www.w3.org/2000/svg" p-id="36624" width="200" height="200">
  <path
    d="M693.316 62.684c-23.562 0-42.624 19.094-42.624 42.656v107.996c0-23.562-19.124-42.654-42.688-42.654-23.56 0-42.686 19.092-42.686 42.654V105.34c0-23.562-19.06-42.656-42.638-42.656-23.562 0-42.672 19.094-42.672 42.656V42.684c0-23.562-19.11-42.67-42.672-42.67-23.56 0-42.654 19.108-42.654 42.67V190.68c0-23.562-19.108-42.67-42.67-42.67s-42.67 19.11-42.67 42.67V128.01c0-23.562-19.094-42.67-42.656-42.67s-42.67 19.108-42.67 42.67v511.986c0 23.562 19.108 42.656 42.67 42.656s42.656-19.094 42.656-42.656v20c0 23.562 19.108 42.656 42.67 42.656s42.67-19.094 42.67-42.656v-20c0 23.562 19.094 42.656 42.654 42.656 23.562 0 42.672-19.094 42.672-42.656l85.31-14.218v14.218c0 23.562 19.124 42.656 42.686 42.656s42.688-19.094 42.688-42.656V617.34c0 23.562 19.062 42.656 42.624 42.656s42.686-19.094 42.686-42.656v-512c0-23.562-19.124-42.656-42.686-42.656z"
    fill="#ED5564" p-id="36625"></path>
  <path
    d="M480.008 853.332c-11.782 0-21.328-9.558-21.328-21.34v-191.996c0-10.438 7.532-19.344 17.812-21.032l366.194-61.028V448h-19.312c-11.75 0-21.312-9.546-21.312-21.328 0-11.78 9.562-21.342 21.312-21.342h40.624c11.75 0 21.312 9.562 21.312 21.342V576c0 10.438-7.5 19.344-17.812 21.032L501.336 658.06v173.934c0 11.78-9.546 21.338-21.328 21.338z"
    fill="#E5E8EC" p-id="36626"></path>
  <path
    d="M821.31 490.672c0 11.782-9.562 21.328-21.312 21.328H160.016c-11.78 0-21.326-9.546-21.326-21.328v-127.998c0-11.78 9.546-21.342 21.326-21.342h639.982c11.75 0 21.312 9.562 21.312 21.342v127.998z"
    fill="#FFCE54" p-id="36627"></path>
  <path d="M437.336 767.992h85.344v255.992h-85.344z" fill="#434A54" p-id="36628"></path>
  <path
    d="M757.312 426.674H202.688c-11.782 0-21.344-9.562-21.344-21.342s9.562-21.328 21.344-21.328h554.624c11.812 0 21.376 9.546 21.376 21.328s-9.564 21.342-21.376 21.342z"
    fill="#F6BB42" p-id="36629"></path>
</svg>