<svg t="1697704457812" class="icon" viewBox="0 0 1024 1024" version="1.1"
  xmlns="http://www.w3.org/2000/svg" p-id="36624" width="200" height="200">
  <path
    d="M34.5 986.248c7.25-20.376 16.688-46.282 27.25-73.126 39.75-101.284 60.814-131.564 69.876-140.596 13.562-13.594 30.376-22.75 48.626-26.532l6.312-1.312 70.688-71.5 84.624 97.75-65.812 63.032-1.376 6.47c-3.75 18.25-12.938 35.062-26.5 48.688-9.062 9-39.312 30.124-140.564 69.846-26.872 10.53-52.812 20.03-73.124 27.28z"
    fill="#FFCE54" p-id="36625"></path>
  <path
    d="M258.316 641.87l-82.376 83.282c-21.438 4.438-42.252 15.218-59.376 32.344C72.814 801.244 0 1020.716 0 1020.716s219.44-72.782 263.252-116.564c17.062-17.094 27.876-37.938 32.312-59.406l75.624-72.44-112.872-130.436z m7.812 172.124l-9.562 9.188-2.688 12.968c-2.938 14.158-10.124 27.284-20.75 37.908-3.5 3.5-26.438 23.156-133.126 65.034a2297.776 2297.776 0 0 1-29.812 11.406 1990.602 1990.602 0 0 1 11.438-29.752c41.876-106.72 61.5-129.658 65.062-133.158 10.626-10.656 23.752-17.812 37.876-20.718l12.624-2.624 9.062-9.156 49.938-50.562 56.312 65.032-46.374 44.434z"
    fill="#F6BB42" p-id="36626"></path>
  <path
    d="M399.818 846.778a904.26 904.26 0 0 0 35.75-17.752l243.002-173.562a1329.196 1329.196 0 0 0 29.438-28.406c5.562-5.624 11.126-11.25 16.564-16.938-0.938 110.718-51.69 231.846-148.064 328.254-32.124 32.094-66.938 59.124-103.25 80.968-0.25 0.156-1.69 1-1.69 1-8.062 4.376-18.376 3.156-25.188-3.656a21.096 21.096 0 0 1-4.876-7.75s-0.75-2.218-0.938-3.188l-43.876-157.534c1.066-0.468 2.066-0.968 3.128-1.436zM415.068 300.522a1423.174 1423.174 0 0 0-16.938 16.624 1193.594 1193.594 0 0 0-28.376 29.406c-42.562 6-173.624 243.034-173.624 243.034a975.846 975.846 0 0 0-17.75 35.752c-0.5 1.032-0.938 2.062-1.438 3.094L19.376 584.554c-0.938-0.188-3.188-0.938-3.188-0.938a21.008 21.008 0 0 1-7.75-4.906c-6.812-6.812-8-17.094-3.624-25.188 0 0 0.812-1.406 1-1.656 21.812-36.314 48.812-71.126 80.938-103.25 96.438-96.438 217.564-147.188 328.316-148.094z"
    fill="#DA4453" p-id="36627"></path>
  <path
    d="M394.006 302.084C273.19 422.928 186.066 560.96 137.502 694.682c-2.562 7.5-0.938 16.062 5.062 22.032l165.814 165.876c6 5.938 14.562 7.594 22.062 5.032 133.752-48.564 271.754-135.658 392.57-256.502 187.752-187.69 293.126-414.162 301.002-607.29 0.25-5.75-1.812-12.094-6.188-16.5-4.438-4.406-10.75-6.468-16.562-6.218-193.124 7.874-419.566 113.282-607.256 300.972z"
    fill="#E6E9ED" p-id="36628"></path>
  <path
    d="M635.196 475.054c-22.75 0-44.124-8.876-60.188-24.938-16.062-16.094-24.938-37.47-24.938-60.22s8.876-44.126 24.938-60.22c16.062-16.062 37.5-24.938 60.188-24.938 22.75 0 44.124 8.876 60.25 24.938 33.19 33.22 33.19 87.25 0 120.44-16.124 16.062-37.5 24.938-60.188 24.938h-0.062zM454.568 655.682c-22.75 0-44.124-8.844-60.188-24.938-16.064-16.062-24.94-37.47-24.94-60.19 0-22.75 8.876-44.156 24.94-60.25 16.062-16.062 37.438-24.938 60.188-24.938 22.752 0 44.126 8.876 60.252 24.938 33.188 33.22 33.188 87.252 0 120.44-16.126 16.094-37.5 24.938-60.252 24.938z"
    fill="#434A54" p-id="36629"></path>
  <path
    d="M710.508 314.646c-20.124-20.094-46.876-31.188-75.312-31.188-28.376 0-55.124 11.094-75.25 31.188-20.062 20.094-31.188 46.844-31.188 75.25 0 28.438 11.124 55.158 31.188 75.282 20.124 20.092 46.876 31.156 75.25 31.156 28.438 0 55.188-11.062 75.312-31.156 41.502-41.5 41.502-109.03 0-150.532z m-30.124 120.408a63.75 63.75 0 0 1-45.188 18.718c-16.312 0-32.688-6.25-45.124-18.718-24.938-24.938-24.938-65.376 0-90.314 12.438-12.468 28.812-18.688 45.124-18.688 16.376 0 32.688 6.218 45.188 18.688 24.936 24.938 24.936 65.376 0 90.314zM454.568 464.118c-28.438 0-55.124 11.062-75.252 31.156-20.124 20.092-31.188 46.844-31.188 75.282 0 28.408 11.062 55.126 31.188 75.252 20.126 20.094 46.814 31.188 75.252 31.188 28.44 0 55.19-11.094 75.316-31.188 41.5-41.5 41.5-109.034 0-150.534-20.126-20.094-46.876-31.156-75.316-31.156z m45.19 151.564c-12.5 12.5-28.814 18.718-45.19 18.718-16.312 0-32.688-6.218-45.124-18.718-24.94-24.94-24.94-65.376 0-90.314 12.438-12.47 28.812-18.688 45.124-18.688 16.376 0 32.69 6.218 45.19 18.688 24.938 24.936 24.938 65.374 0 90.314z"
    fill="#CCD1D9" p-id="36630"></path>
  <path
    d="M958.45 291.616L733.51 66.706C825.136 26.862 916.45 4.58 1001.262 1.112c5.812-0.25 12.124 1.812 16.562 6.218 4.376 4.406 6.438 10.75 6.188 16.5-3.438 84.876-25.75 176.16-65.562 267.786z"
    fill="#DA4453" p-id="36631"></path>
</svg>